<svg xmlns="http://www.w3.org/2000/svg" width="1024" height="1024" viewBox="0 0 1024 1024">
<defs>
<linearGradient id="sky" x1="0" y1="0" x2="0" y2="1">
<stop offset="0%" stop-color="#b8c8d0"/><stop offset="20%" stop-color="#a0b5c0"/>
<stop offset="45%" stop-color="#8098a8"/><stop offset="70%" stop-color="#607080"/>
<stop offset="100%" stop-color="#3a454f"/>
</linearGradient>
<radialGradient id="moon" cx="50%" cy="25%" r="35%">
<stop offset="0%" stop-color="rgba(220,235,245,0.35)"/>
<stop offset="15%" stop-color="rgba(200,225,240,0.12)"/>
<stop offset="40%" stop-color="rgba(190,215,230,0.03)"/>
<stop offset="100%" stop-color="rgba(180,205,220,0)"/>
</radialGradient>
<linearGradient id="snow" x1="0" y1="0" x2="0" y2="1">
<stop offset="0%" stop-color="rgba(220,235,245,0.15)"/>
<stop offset="100%" stop-color="rgba(200,220,230,0.05)"/>
</linearGradient>
</defs>
<rect width="1024" height="1024" fill="url(#sky)"/>
<rect width="1024" height="1024" fill="url(#moon)"/>
<circle cx="512" cy="256" r="55" fill="rgba(220,235,245,0.15)"/>
<circle cx="512" cy="256" r="50" fill="rgba(230,240,250,0.2)"/>
<circle cx="512" cy="256" r="65" fill="none" stroke="rgba(200,225,240,0.04)" stroke-width="0.5"/>
<path d="M0 450 L80 350 L160 400 L240 320 L320 380 L400 280 L480 360 L560 260 L640 340 L720 300 L800 370 L880 330 L960 380 L1024 360 L1024 600 L0 600 Z" fill="rgba(160,180,195,0.1)"/>
<path d="M0 500 L100 420 L200 460 L300 400 L400 440 L500 380 L600 430 L700 390 L800 440 L900 400 L1024 420 L1024 600 L0 600 Z" fill="rgba(180,200,210,0.08)"/>
<line x1="140" y1="580" x2="140" y2="486" stroke="rgba(70,75,80,0.278)" stroke-width="2.8" stroke-linecap="round"/>
<line x1="140" y1="486" x2="182" y2="441" stroke="rgba(70,75,80,0.223)" stroke-width="2.3" stroke-linecap="round"/>
<line x1="182" y1="441" x2="227" y2="426" stroke="rgba(70,75,80,0.178)" stroke-width="1.8" stroke-linecap="round"/>
<line x1="227" y1="426" x2="261" y2="438" stroke="rgba(70,75,80,0.143)" stroke-width="1.3" stroke-linecap="round"/>
<line x1="261" y1="438" x2="279" y2="460" stroke="rgba(70,75,80,0.114)" stroke-width="0.8" stroke-linecap="round"/>
<line x1="261" y1="438" x2="279" y2="433" stroke="rgba(70,75,80,0.114)" stroke-width="0.8" stroke-linecap="round"/>
<line x1="227" y1="426" x2="245" y2="404" stroke="rgba(70,75,80,0.143)" stroke-width="1.3" stroke-linecap="round"/>
<line x1="245" y1="404" x2="264" y2="399" stroke="rgba(70,75,80,0.114)" stroke-width="0.8" stroke-linecap="round"/>
<line x1="245" y1="404" x2="247" y2="389" stroke="rgba(70,75,80,0.114)" stroke-width="0.8" stroke-linecap="round"/>
<line x1="182" y1="441" x2="184" y2="406" stroke="rgba(70,75,80,0.178)" stroke-width="1.8" stroke-linecap="round"/>
<line x1="184" y1="406" x2="200" y2="388" stroke="rgba(70,75,80,0.143)" stroke-width="1.3" stroke-linecap="round"/>
<line x1="200" y1="388" x2="219" y2="387" stroke="rgba(70,75,80,0.114)" stroke-width="0.8" stroke-linecap="round"/>
<line x1="200" y1="388" x2="200" y2="374" stroke="rgba(70,75,80,0.114)" stroke-width="0.8" stroke-linecap="round"/>
<line x1="184" y1="406" x2="175" y2="386" stroke="rgba(70,75,80,0.143)" stroke-width="1.3" stroke-linecap="round"/>
<line x1="175" y1="386" x2="175" y2="372" stroke="rgba(70,75,80,0.114)" stroke-width="0.8" stroke-linecap="round"/>
<line x1="175" y1="386" x2="164" y2="378" stroke="rgba(70,75,80,0.114)" stroke-width="0.8" stroke-linecap="round"/>
<line x1="140" y1="486" x2="120" y2="443" stroke="rgba(70,75,80,0.223)" stroke-width="2.3" stroke-linecap="round"/>
<line x1="120" y1="443" x2="122" y2="413" stroke="rgba(70,75,80,0.178)" stroke-width="1.8" stroke-linecap="round"/>
<line x1="122" y1="413" x2="139" y2="397" stroke="rgba(70,75,80,0.143)" stroke-width="1.3" stroke-linecap="round"/>
<line x1="139" y1="397" x2="155" y2="393" stroke="rgba(70,75,80,0.114)" stroke-width="0.8" stroke-linecap="round"/>
<line x1="139" y1="397" x2="142" y2="382" stroke="rgba(70,75,80,0.114)" stroke-width="0.8" stroke-linecap="round"/>
<line x1="122" y1="413" x2="110" y2="399" stroke="rgba(70,75,80,0.143)" stroke-width="1.3" stroke-linecap="round"/>
<line x1="110" y1="399" x2="108" y2="387" stroke="rgba(70,75,80,0.114)" stroke-width="0.8" stroke-linecap="round"/>
<line x1="110" y1="399" x2="100" y2="395" stroke="rgba(70,75,80,0.114)" stroke-width="0.8" stroke-linecap="round"/>
<line x1="120" y1="443" x2="100" y2="422" stroke="rgba(70,75,80,0.178)" stroke-width="1.8" stroke-linecap="round"/>
<line x1="100" y1="422" x2="98" y2="402" stroke="rgba(70,75,80,0.143)" stroke-width="1.3" stroke-linecap="round"/>
<line x1="98" y1="402" x2="108" y2="391" stroke="rgba(70,75,80,0.114)" stroke-width="0.8" stroke-linecap="round"/>
<line x1="98" y1="402" x2="90" y2="395" stroke="rgba(70,75,80,0.114)" stroke-width="0.8" stroke-linecap="round"/>
<line x1="100" y1="422" x2="81" y2="420" stroke="rgba(70,75,80,0.143)" stroke-width="1.3" stroke-linecap="round"/>
<line x1="81" y1="420" x2="71" y2="411" stroke="rgba(70,75,80,0.114)" stroke-width="0.8" stroke-linecap="round"/>
<line x1="81" y1="420" x2="71" y2="425" stroke="rgba(70,75,80,0.114)" stroke-width="0.8" stroke-linecap="round"/>
<line x1="260" y1="580" x2="260" y2="514" stroke="rgba(70,75,80,0.199)" stroke-width="2.8" stroke-linecap="round"/>
<line x1="260" y1="514" x2="280" y2="475" stroke="rgba(70,75,80,0.159)" stroke-width="2.3" stroke-linecap="round"/>
<line x1="280" y1="475" x2="308" y2="459" stroke="rgba(70,75,80,0.128)" stroke-width="1.8" stroke-linecap="round"/>
<line x1="308" y1="459" x2="332" y2="455" stroke="rgba(70,75,80,0.102)" stroke-width="1.3" stroke-linecap="round"/>
<line x1="332" y1="455" x2="348" y2="458" stroke="rgba(70,75,80,0.082)" stroke-width="0.8" stroke-linecap="round"/>
<line x1="332" y1="455" x2="341" y2="448" stroke="rgba(70,75,80,0.082)" stroke-width="0.8" stroke-linecap="round"/>
<line x1="308" y1="459" x2="317" y2="445" stroke="rgba(70,75,80,0.102)" stroke-width="1.3" stroke-linecap="round"/>
<line x1="317" y1="445" x2="329" y2="438" stroke="rgba(70,75,80,0.082)" stroke-width="0.8" stroke-linecap="round"/>
<line x1="317" y1="445" x2="317" y2="433" stroke="rgba(70,75,80,0.082)" stroke-width="0.8" stroke-linecap="round"/>
<line x1="280" y1="475" x2="276" y2="446" stroke="rgba(70,75,80,0.128)" stroke-width="1.8" stroke-linecap="round"/>
<line x1="276" y1="446" x2="284" y2="425" stroke="rgba(70,75,80,0.102)" stroke-width="1.3" stroke-linecap="round"/>
<line x1="284" y1="425" x2="293" y2="414" stroke="rgba(70,75,80,0.082)" stroke-width="0.8" stroke-linecap="round"/>
<line x1="284" y1="425" x2="282" y2="413" stroke="rgba(70,75,80,0.082)" stroke-width="0.8" stroke-linecap="round"/>
<line x1="276" y1="446" x2="266" y2="433" stroke="rgba(70,75,80,0.102)" stroke-width="1.3" stroke-linecap="round"/>
<line x1="266" y1="433" x2="265" y2="422" stroke="rgba(70,75,80,0.082)" stroke-width="0.8" stroke-linecap="round"/>
<line x1="266" y1="433" x2="258" y2="428" stroke="rgba(70,75,80,0.082)" stroke-width="0.8" stroke-linecap="round"/>
<line x1="260" y1="514" x2="248" y2="481" stroke="rgba(70,75,80,0.159)" stroke-width="2.3" stroke-linecap="round"/>
<line x1="248" y1="481" x2="247" y2="454" stroke="rgba(70,75,80,0.128)" stroke-width="1.8" stroke-linecap="round"/>
<line x1="247" y1="454" x2="259" y2="441" stroke="rgba(70,75,80,0.102)" stroke-width="1.3" stroke-linecap="round"/>
<line x1="259" y1="441" x2="270" y2="436" stroke="rgba(70,75,80,0.082)" stroke-width="0.8" stroke-linecap="round"/>
<line x1="259" y1="441" x2="261" y2="430" stroke="rgba(70,75,80,0.082)" stroke-width="0.8" stroke-linecap="round"/>
<line x1="247" y1="454" x2="236" y2="439" stroke="rgba(70,75,80,0.102)" stroke-width="1.3" stroke-linecap="round"/>
<line x1="236" y1="439" x2="237" y2="426" stroke="rgba(70,75,80,0.082)" stroke-width="0.8" stroke-linecap="round"/>
<line x1="236" y1="439" x2="228" y2="434" stroke="rgba(70,75,80,0.082)" stroke-width="0.8" stroke-linecap="round"/>
<line x1="248" y1="481" x2="233" y2="470" stroke="rgba(70,75,80,0.128)" stroke-width="1.8" stroke-linecap="round"/>
<line x1="233" y1="470" x2="225" y2="458" stroke="rgba(70,75,80,0.102)" stroke-width="1.3" stroke-linecap="round"/>
<line x1="225" y1="458" x2="227" y2="447" stroke="rgba(70,75,80,0.082)" stroke-width="0.8" stroke-linecap="round"/>
<line x1="225" y1="458" x2="217" y2="453" stroke="rgba(70,75,80,0.082)" stroke-width="0.8" stroke-linecap="round"/>
<line x1="233" y1="470" x2="220" y2="470" stroke="rgba(70,75,80,0.102)" stroke-width="1.3" stroke-linecap="round"/>
<line x1="220" y1="470" x2="213" y2="468" stroke="rgba(70,75,80,0.082)" stroke-width="0.8" stroke-linecap="round"/>
<line x1="220" y1="470" x2="214" y2="474" stroke="rgba(70,75,80,0.082)" stroke-width="0.8" stroke-linecap="round"/>
<line x1="380" y1="580" x2="380" y2="488" stroke="rgba(70,75,80,0.221)" stroke-width="2.8" stroke-linecap="round"/>
<line x1="380" y1="488" x2="418" y2="437" stroke="rgba(70,75,80,0.177)" stroke-width="2.3" stroke-linecap="round"/>
<line x1="418" y1="437" x2="454" y2="418" stroke="rgba(70,75,80,0.142)" stroke-width="1.8" stroke-linecap="round"/>
<line x1="454" y1="418" x2="482" y2="420" stroke="rgba(70,75,80,0.113)" stroke-width="1.3" stroke-linecap="round"/>
<line x1="482" y1="420" x2="498" y2="434" stroke="rgba(70,75,80,0.091)" stroke-width="0.8" stroke-linecap="round"/>
<line x1="482" y1="420" x2="495" y2="409" stroke="rgba(70,75,80,0.091)" stroke-width="0.8" stroke-linecap="round"/>
<line x1="454" y1="418" x2="463" y2="395" stroke="rgba(70,75,80,0.113)" stroke-width="1.3" stroke-linecap="round"/>
<line x1="463" y1="395" x2="476" y2="388" stroke="rgba(70,75,80,0.091)" stroke-width="0.8" stroke-linecap="round"/>
<line x1="463" y1="395" x2="459" y2="380" stroke="rgba(70,75,80,0.091)" stroke-width="0.8" stroke-linecap="round"/>
<line x1="418" y1="437" x2="423" y2="396" stroke="rgba(70,75,80,0.142)" stroke-width="1.8" stroke-linecap="round"/>
<line x1="423" y1="396" x2="442" y2="379" stroke="rgba(70,75,80,0.113)" stroke-width="1.3" stroke-linecap="round"/>
<line x1="442" y1="379" x2="460" y2="373" stroke="rgba(70,75,80,0.091)" stroke-width="0.8" stroke-linecap="round"/>
<line x1="442" y1="379" x2="448" y2="364" stroke="rgba(70,75,80,0.091)" stroke-width="0.8" stroke-linecap="round"/>
<line x1="423" y1="396" x2="411" y2="372" stroke="rgba(70,75,80,0.113)" stroke-width="1.3" stroke-linecap="round"/>
<line x1="411" y1="372" x2="410" y2="350" stroke="rgba(70,75,80,0.091)" stroke-width="0.8" stroke-linecap="round"/>
<line x1="411" y1="372" x2="398" y2="367" stroke="rgba(70,75,80,0.091)" stroke-width="0.8" stroke-linecap="round"/>
<line x1="380" y1="488" x2="349" y2="452" stroke="rgba(70,75,80,0.177)" stroke-width="2.3" stroke-linecap="round"/>
<line x1="349" y1="452" x2="348" y2="414" stroke="rgba(70,75,80,0.142)" stroke-width="1.8" stroke-linecap="round"/>
<line x1="348" y1="414" x2="366" y2="394" stroke="rgba(70,75,80,0.113)" stroke-width="1.3" stroke-linecap="round"/>
<line x1="366" y1="394" x2="385" y2="390" stroke="rgba(70,75,80,0.091)" stroke-width="0.8" stroke-linecap="round"/>
<line x1="366" y1="394" x2="368" y2="377" stroke="rgba(70,75,80,0.091)" stroke-width="0.8" stroke-linecap="round"/>
<line x1="348" y1="414" x2="336" y2="395" stroke="rgba(70,75,80,0.113)" stroke-width="1.3" stroke-linecap="round"/>
<line x1="336" y1="395" x2="337" y2="377" stroke="rgba(70,75,80,0.091)" stroke-width="0.8" stroke-linecap="round"/>
<line x1="336" y1="395" x2="325" y2="387" stroke="rgba(70,75,80,0.091)" stroke-width="0.8" stroke-linecap="round"/>
<line x1="349" y1="452" x2="321" y2="447" stroke="rgba(70,75,80,0.142)" stroke-width="1.8" stroke-linecap="round"/>
<line x1="321" y1="447" x2="307" y2="430" stroke="rgba(70,75,80,0.113)" stroke-width="1.3" stroke-linecap="round"/>
<line x1="307" y1="430" x2="306" y2="416" stroke="rgba(70,75,80,0.091)" stroke-width="0.8" stroke-linecap="round"/>
<line x1="307" y1="430" x2="294" y2="428" stroke="rgba(70,75,80,0.091)" stroke-width="0.8" stroke-linecap="round"/>
<line x1="321" y1="447" x2="302" y2="453" stroke="rgba(70,75,80,0.113)" stroke-width="1.3" stroke-linecap="round"/>
<line x1="302" y1="453" x2="289" y2="447" stroke="rgba(70,75,80,0.091)" stroke-width="0.8" stroke-linecap="round"/>
<line x1="302" y1="453" x2="296" y2="462" stroke="rgba(70,75,80,0.091)" stroke-width="0.8" stroke-linecap="round"/>
<line x1="500" y1="580" x2="500" y2="520" stroke="rgba(70,75,80,0.265)" stroke-width="2.8" stroke-linecap="round"/>
<line x1="500" y1="520" x2="531" y2="487" stroke="rgba(70,75,80,0.212)" stroke-width="2.3" stroke-linecap="round"/>
<line x1="531" y1="487" x2="564" y2="480" stroke="rgba(70,75,80,0.170)" stroke-width="1.8" stroke-linecap="round"/>
<line x1="564" y1="480" x2="587" y2="486" stroke="rgba(70,75,80,0.136)" stroke-width="1.3" stroke-linecap="round"/>
<line x1="587" y1="486" x2="598" y2="497" stroke="rgba(70,75,80,0.109)" stroke-width="0.8" stroke-linecap="round"/>
<line x1="587" y1="486" x2="600" y2="481" stroke="rgba(70,75,80,0.109)" stroke-width="0.8" stroke-linecap="round"/>
<line x1="564" y1="480" x2="578" y2="469" stroke="rgba(70,75,80,0.136)" stroke-width="1.3" stroke-linecap="round"/>
<line x1="578" y1="469" x2="589" y2="466" stroke="rgba(70,75,80,0.109)" stroke-width="0.8" stroke-linecap="round"/>
<line x1="578" y1="469" x2="584" y2="459" stroke="rgba(70,75,80,0.109)" stroke-width="0.8" stroke-linecap="round"/>
<line x1="531" y1="487" x2="534" y2="464" stroke="rgba(70,75,80,0.170)" stroke-width="1.8" stroke-linecap="round"/>
<line x1="534" y1="464" x2="545" y2="448" stroke="rgba(70,75,80,0.136)" stroke-width="1.3" stroke-linecap="round"/>
<line x1="545" y1="448" x2="557" y2="445" stroke="rgba(70,75,80,0.109)" stroke-width="0.8" stroke-linecap="round"/>
<line x1="545" y1="448" x2="544" y2="435" stroke="rgba(70,75,80,0.109)" stroke-width="0.8" stroke-linecap="round"/>
<line x1="534" y1="464" x2="527" y2="450" stroke="rgba(70,75,80,0.136)" stroke-width="1.3" stroke-linecap="round"/>
<line x1="527" y1="450" x2="529" y2="439" stroke="rgba(70,75,80,0.109)" stroke-width="0.8" stroke-linecap="round"/>
<line x1="527" y1="450" x2="518" y2="446" stroke="rgba(70,75,80,0.109)" stroke-width="0.8" stroke-linecap="round"/>
<line x1="500" y1="520" x2="478" y2="490" stroke="rgba(70,75,80,0.212)" stroke-width="2.3" stroke-linecap="round"/>
<line x1="478" y1="490" x2="473" y2="467" stroke="rgba(70,75,80,0.170)" stroke-width="1.8" stroke-linecap="round"/>
<line x1="473" y1="467" x2="477" y2="451" stroke="rgba(70,75,80,0.136)" stroke-width="1.3" stroke-linecap="round"/>
<line x1="477" y1="451" x2="485" y2="442" stroke="rgba(70,75,80,0.109)" stroke-width="0.8" stroke-linecap="round"/>
<line x1="477" y1="451" x2="473" y2="443" stroke="rgba(70,75,80,0.109)" stroke-width="0.8" stroke-linecap="round"/>
<line x1="473" y1="467" x2="464" y2="453" stroke="rgba(70,75,80,0.136)" stroke-width="1.3" stroke-linecap="round"/>
<line x1="464" y1="453" x2="462" y2="440" stroke="rgba(70,75,80,0.109)" stroke-width="0.8" stroke-linecap="round"/>
<line x1="464" y1="453" x2="453" y2="451" stroke="rgba(70,75,80,0.109)" stroke-width="0.8" stroke-linecap="round"/>
<line x1="478" y1="490" x2="462" y2="481" stroke="rgba(70,75,80,0.170)" stroke-width="1.8" stroke-linecap="round"/>
<line x1="462" y1="481" x2="453" y2="469" stroke="rgba(70,75,80,0.136)" stroke-width="1.3" stroke-linecap="round"/>
<line x1="453" y1="469" x2="450" y2="459" stroke="rgba(70,75,80,0.109)" stroke-width="0.8" stroke-linecap="round"/>
<line x1="453" y1="469" x2="446" y2="466" stroke="rgba(70,75,80,0.109)" stroke-width="0.8" stroke-linecap="round"/>
<line x1="462" y1="481" x2="452" y2="481" stroke="rgba(70,75,80,0.136)" stroke-width="1.3" stroke-linecap="round"/>
<line x1="452" y1="481" x2="446" y2="478" stroke="rgba(70,75,80,0.109)" stroke-width="0.8" stroke-linecap="round"/>
<line x1="452" y1="481" x2="446" y2="483" stroke="rgba(70,75,80,0.109)" stroke-width="0.8" stroke-linecap="round"/>
<line x1="620" y1="580" x2="620" y2="495" stroke="rgba(70,75,80,0.296)" stroke-width="2.8" stroke-linecap="round"/>
<line x1="620" y1="495" x2="662" y2="444" stroke="rgba(70,75,80,0.236)" stroke-width="2.3" stroke-linecap="round"/>
<line x1="662" y1="444" x2="701" y2="432" stroke="rgba(70,75,80,0.189)" stroke-width="1.8" stroke-linecap="round"/>
<line x1="701" y1="432" x2="732" y2="442" stroke="rgba(70,75,80,0.151)" stroke-width="1.3" stroke-linecap="round"/>
<line x1="732" y1="442" x2="743" y2="462" stroke="rgba(70,75,80,0.121)" stroke-width="0.8" stroke-linecap="round"/>
<line x1="732" y1="442" x2="753" y2="443" stroke="rgba(70,75,80,0.121)" stroke-width="0.8" stroke-linecap="round"/>
<line x1="701" y1="432" x2="719" y2="417" stroke="rgba(70,75,80,0.151)" stroke-width="1.3" stroke-linecap="round"/>
<line x1="719" y1="417" x2="737" y2="418" stroke="rgba(70,75,80,0.121)" stroke-width="0.8" stroke-linecap="round"/>
<line x1="719" y1="417" x2="725" y2="406" stroke="rgba(70,75,80,0.121)" stroke-width="0.8" stroke-linecap="round"/>
<line x1="662" y1="444" x2="661" y2="410" stroke="rgba(70,75,80,0.189)" stroke-width="1.8" stroke-linecap="round"/>
<line x1="661" y1="410" x2="670" y2="389" stroke="rgba(70,75,80,0.151)" stroke-width="1.3" stroke-linecap="round"/>
<line x1="670" y1="389" x2="684" y2="382" stroke="rgba(70,75,80,0.121)" stroke-width="0.8" stroke-linecap="round"/>
<line x1="670" y1="389" x2="671" y2="374" stroke="rgba(70,75,80,0.121)" stroke-width="0.8" stroke-linecap="round"/>
<line x1="661" y1="410" x2="647" y2="397" stroke="rgba(70,75,80,0.151)" stroke-width="1.3" stroke-linecap="round"/>
<line x1="647" y1="397" x2="643" y2="384" stroke="rgba(70,75,80,0.121)" stroke-width="0.8" stroke-linecap="round"/>
<line x1="647" y1="397" x2="637" y2="396" stroke="rgba(70,75,80,0.121)" stroke-width="0.8" stroke-linecap="round"/>
<line x1="620" y1="495" x2="590" y2="454" stroke="rgba(70,75,80,0.236)" stroke-width="2.3" stroke-linecap="round"/>
<line x1="590" y1="454" x2="592" y2="416" stroke="rgba(70,75,80,0.189)" stroke-width="1.8" stroke-linecap="round"/>
<line x1="592" y1="416" x2="602" y2="392" stroke="rgba(70,75,80,0.151)" stroke-width="1.3" stroke-linecap="round"/>
<line x1="602" y1="392" x2="613" y2="379" stroke="rgba(70,75,80,0.121)" stroke-width="0.8" stroke-linecap="round"/>
<line x1="602" y1="392" x2="595" y2="375" stroke="rgba(70,75,80,0.121)" stroke-width="0.8" stroke-linecap="round"/>
<line x1="592" y1="416" x2="582" y2="396" stroke="rgba(70,75,80,0.151)" stroke-width="1.3" stroke-linecap="round"/>
<line x1="582" y1="396" x2="585" y2="380" stroke="rgba(70,75,80,0.121)" stroke-width="0.8" stroke-linecap="round"/>
<line x1="582" y1="396" x2="573" y2="387" stroke="rgba(70,75,80,0.121)" stroke-width="0.8" stroke-linecap="round"/>
<line x1="590" y1="454" x2="562" y2="449" stroke="rgba(70,75,80,0.189)" stroke-width="1.8" stroke-linecap="round"/>
<line x1="562" y1="449" x2="544" y2="437" stroke="rgba(70,75,80,0.151)" stroke-width="1.3" stroke-linecap="round"/>
<line x1="544" y1="437" x2="537" y2="423" stroke="rgba(70,75,80,0.121)" stroke-width="0.8" stroke-linecap="round"/>
<line x1="544" y1="437" x2="534" y2="435" stroke="rgba(70,75,80,0.121)" stroke-width="0.8" stroke-linecap="round"/>
<line x1="562" y1="449" x2="550" y2="457" stroke="rgba(70,75,80,0.151)" stroke-width="1.3" stroke-linecap="round"/>
<line x1="550" y1="457" x2="538" y2="457" stroke="rgba(70,75,80,0.121)" stroke-width="0.8" stroke-linecap="round"/>
<line x1="550" y1="457" x2="545" y2="463" stroke="rgba(70,75,80,0.121)" stroke-width="0.8" stroke-linecap="round"/>
<line x1="740" y1="580" x2="740" y2="499" stroke="rgba(70,75,80,0.183)" stroke-width="2.8" stroke-linecap="round"/>
<line x1="740" y1="499" x2="761" y2="452" stroke="rgba(70,75,80,0.147)" stroke-width="2.3" stroke-linecap="round"/>
<line x1="761" y1="452" x2="789" y2="423" stroke="rgba(70,75,80,0.117)" stroke-width="1.8" stroke-linecap="round"/>
<line x1="789" y1="423" x2="820" y2="418" stroke="rgba(70,75,80,0.094)" stroke-width="1.3" stroke-linecap="round"/>
<line x1="820" y1="418" x2="838" y2="427" stroke="rgba(70,75,80,0.075)" stroke-width="0.8" stroke-linecap="round"/>
<line x1="820" y1="418" x2="833" y2="405" stroke="rgba(70,75,80,0.075)" stroke-width="0.8" stroke-linecap="round"/>
<line x1="789" y1="423" x2="797" y2="400" stroke="rgba(70,75,80,0.094)" stroke-width="1.3" stroke-linecap="round"/>
<line x1="797" y1="400" x2="811" y2="389" stroke="rgba(70,75,80,0.075)" stroke-width="0.8" stroke-linecap="round"/>
<line x1="797" y1="400" x2="796" y2="385" stroke="rgba(70,75,80,0.075)" stroke-width="0.8" stroke-linecap="round"/>
<line x1="761" y1="452" x2="759" y2="418" stroke="rgba(70,75,80,0.117)" stroke-width="1.8" stroke-linecap="round"/>
<line x1="759" y1="418" x2="774" y2="398" stroke="rgba(70,75,80,0.094)" stroke-width="1.3" stroke-linecap="round"/>
<line x1="774" y1="398" x2="791" y2="388" stroke="rgba(70,75,80,0.075)" stroke-width="0.8" stroke-linecap="round"/>
<line x1="774" y1="398" x2="776" y2="383" stroke="rgba(70,75,80,0.075)" stroke-width="0.8" stroke-linecap="round"/>
<line x1="759" y1="418" x2="746" y2="402" stroke="rgba(70,75,80,0.094)" stroke-width="1.3" stroke-linecap="round"/>
<line x1="746" y1="402" x2="745" y2="389" stroke="rgba(70,75,80,0.075)" stroke-width="0.8" stroke-linecap="round"/>
<line x1="746" y1="402" x2="733" y2="400" stroke="rgba(70,75,80,0.075)" stroke-width="0.8" stroke-linecap="round"/>
<line x1="740" y1="499" x2="727" y2="460" stroke="rgba(70,75,80,0.147)" stroke-width="2.3" stroke-linecap="round"/>
<line x1="727" y1="460" x2="728" y2="429" stroke="rgba(70,75,80,0.117)" stroke-width="1.8" stroke-linecap="round"/>
<line x1="728" y1="429" x2="745" y2="411" stroke="rgba(70,75,80,0.094)" stroke-width="1.3" stroke-linecap="round"/>
<line x1="745" y1="411" x2="761" y2="407" stroke="rgba(70,75,80,0.075)" stroke-width="0.8" stroke-linecap="round"/>
<line x1="745" y1="411" x2="752" y2="396" stroke="rgba(70,75,80,0.075)" stroke-width="0.8" stroke-linecap="round"/>
<line x1="728" y1="429" x2="715" y2="412" stroke="rgba(70,75,80,0.094)" stroke-width="1.3" stroke-linecap="round"/>
<line x1="715" y1="412" x2="713" y2="399" stroke="rgba(70,75,80,0.075)" stroke-width="0.8" stroke-linecap="round"/>
<line x1="715" y1="412" x2="705" y2="410" stroke="rgba(70,75,80,0.075)" stroke-width="0.8" stroke-linecap="round"/>
<line x1="727" y1="460" x2="709" y2="446" stroke="rgba(70,75,80,0.117)" stroke-width="1.8" stroke-linecap="round"/>
<line x1="709" y1="446" x2="705" y2="432" stroke="rgba(70,75,80,0.094)" stroke-width="1.3" stroke-linecap="round"/>
<line x1="705" y1="432" x2="709" y2="422" stroke="rgba(70,75,80,0.075)" stroke-width="0.8" stroke-linecap="round"/>
<line x1="705" y1="432" x2="698" y2="424" stroke="rgba(70,75,80,0.075)" stroke-width="0.8" stroke-linecap="round"/>
<line x1="709" y1="446" x2="696" y2="445" stroke="rgba(70,75,80,0.094)" stroke-width="1.3" stroke-linecap="round"/>
<line x1="696" y1="445" x2="690" y2="440" stroke="rgba(70,75,80,0.075)" stroke-width="0.8" stroke-linecap="round"/>
<line x1="696" y1="445" x2="689" y2="449" stroke="rgba(70,75,80,0.075)" stroke-width="0.8" stroke-linecap="round"/>
<line x1="860" y1="580" x2="860" y2="490" stroke="rgba(70,75,80,0.254)" stroke-width="2.8" stroke-linecap="round"/>
<line x1="860" y1="490" x2="892" y2="443" stroke="rgba(70,75,80,0.203)" stroke-width="2.3" stroke-linecap="round"/>
<line x1="892" y1="443" x2="926" y2="428" stroke="rgba(70,75,80,0.162)" stroke-width="1.8" stroke-linecap="round"/>
<line x1="926" y1="428" x2="950" y2="426" stroke="rgba(70,75,80,0.130)" stroke-width="1.3" stroke-linecap="round"/>
<line x1="950" y1="426" x2="965" y2="432" stroke="rgba(70,75,80,0.104)" stroke-width="0.8" stroke-linecap="round"/>
<line x1="950" y1="426" x2="965" y2="418" stroke="rgba(70,75,80,0.104)" stroke-width="0.8" stroke-linecap="round"/>
<line x1="926" y1="428" x2="936" y2="405" stroke="rgba(70,75,80,0.130)" stroke-width="1.3" stroke-linecap="round"/>
<line x1="936" y1="405" x2="948" y2="395" stroke="rgba(70,75,80,0.104)" stroke-width="0.8" stroke-linecap="round"/>
<line x1="936" y1="405" x2="934" y2="392" stroke="rgba(70,75,80,0.104)" stroke-width="0.8" stroke-linecap="round"/>
<line x1="892" y1="443" x2="898" y2="407" stroke="rgba(70,75,80,0.162)" stroke-width="1.8" stroke-linecap="round"/>
<line x1="898" y1="407" x2="914" y2="391" stroke="rgba(70,75,80,0.130)" stroke-width="1.3" stroke-linecap="round"/>
<line x1="914" y1="391" x2="928" y2="387" stroke="rgba(70,75,80,0.104)" stroke-width="0.8" stroke-linecap="round"/>
<line x1="914" y1="391" x2="917" y2="377" stroke="rgba(70,75,80,0.104)" stroke-width="0.8" stroke-linecap="round"/>
<line x1="898" y1="407" x2="887" y2="388" stroke="rgba(70,75,80,0.130)" stroke-width="1.3" stroke-linecap="round"/>
<line x1="887" y1="388" x2="889" y2="375" stroke="rgba(70,75,80,0.104)" stroke-width="0.8" stroke-linecap="round"/>
<line x1="887" y1="388" x2="874" y2="382" stroke="rgba(70,75,80,0.104)" stroke-width="0.8" stroke-linecap="round"/>
<line x1="860" y1="490" x2="826" y2="439" stroke="rgba(70,75,80,0.203)" stroke-width="2.3" stroke-linecap="round"/>
<line x1="826" y1="439" x2="818" y2="396" stroke="rgba(70,75,80,0.162)" stroke-width="1.8" stroke-linecap="round"/>
<line x1="818" y1="396" x2="831" y2="368" stroke="rgba(70,75,80,0.130)" stroke-width="1.3" stroke-linecap="round"/>
<line x1="831" y1="368" x2="852" y2="360" stroke="rgba(70,75,80,0.104)" stroke-width="0.8" stroke-linecap="round"/>
<line x1="831" y1="368" x2="828" y2="352" stroke="rgba(70,75,80,0.104)" stroke-width="0.8" stroke-linecap="round"/>
<line x1="818" y1="396" x2="803" y2="378" stroke="rgba(70,75,80,0.130)" stroke-width="1.3" stroke-linecap="round"/>
<line x1="803" y1="378" x2="797" y2="363" stroke="rgba(70,75,80,0.104)" stroke-width="0.8" stroke-linecap="round"/>
<line x1="803" y1="378" x2="788" y2="371" stroke="rgba(70,75,80,0.104)" stroke-width="0.8" stroke-linecap="round"/>
<line x1="826" y1="439" x2="789" y2="422" stroke="rgba(70,75,80,0.162)" stroke-width="1.8" stroke-linecap="round"/>
<line x1="789" y1="422" x2="768" y2="403" stroke="rgba(70,75,80,0.130)" stroke-width="1.3" stroke-linecap="round"/>
<line x1="768" y1="403" x2="764" y2="381" stroke="rgba(70,75,80,0.104)" stroke-width="0.8" stroke-linecap="round"/>
<line x1="768" y1="403" x2="753" y2="403" stroke="rgba(70,75,80,0.104)" stroke-width="0.8" stroke-linecap="round"/>
<line x1="789" y1="422" x2="762" y2="423" stroke="rgba(70,75,80,0.130)" stroke-width="1.3" stroke-linecap="round"/>
<line x1="762" y1="423" x2="747" y2="417" stroke="rgba(70,75,80,0.104)" stroke-width="0.8" stroke-linecap="round"/>
<line x1="762" y1="423" x2="746" y2="431" stroke="rgba(70,75,80,0.104)" stroke-width="0.8" stroke-linecap="round"/>
<line x1="140" y1="580" x2="140" y2="1024" stroke="rgba(60,65,70,0.150)" stroke-width="3.0" stroke-linecap="round"/>
<line x1="380" y1="580" x2="380" y2="1024" stroke="rgba(60,65,70,0.120)" stroke-width="2.5" stroke-linecap="round"/>
<line x1="620" y1="580" x2="620" y2="1024" stroke="rgba(60,65,70,0.180)" stroke-width="3.5" stroke-linecap="round"/>
<line x1="860" y1="580" x2="860" y2="1024" stroke="rgba(60,65,70,0.100)" stroke-width="2.0" stroke-linecap="round"/>
<circle cx="244" cy="372" r="4.7" fill="rgba(220,235,245,0.086)"/>
<circle cx="853" cy="240" r="4.5" fill="rgba(220,235,245,0.070)"/>
<circle cx="353" cy="470" r="2.8" fill="rgba(220,235,245,0.084)"/>
<circle cx="283" cy="454" r="5.6" fill="rgba(220,235,245,0.101)"/>
<circle cx="100" cy="298" r="3.8" fill="rgba(220,235,245,0.094)"/>
<circle cx="508" cy="270" r="5.4" fill="rgba(220,235,245,0.061)"/>
<circle cx="446" cy="340" r="6.0" fill="rgba(220,235,245,0.059)"/>
<circle cx="708" cy="348" r="4.8" fill="rgba(220,235,245,0.042)"/>
<circle cx="591" cy="446" r="2.3" fill="rgba(220,235,245,0.080)"/>
<circle cx="671" cy="423" r="2.8" fill="rgba(220,235,245,0.045)"/>
<circle cx="248" cy="438" r="3.5" fill="rgba(220,235,245,0.090)"/>
<circle cx="255" cy="499" r="3.1" fill="rgba(220,235,245,0.088)"/>
<circle cx="555" cy="259" r="3.6" fill="rgba(220,235,245,0.111)"/>
<circle cx="814" cy="278" r="4.9" fill="rgba(220,235,245,0.041)"/>
<circle cx="496" cy="335" r="2.2" fill="rgba(220,235,245,0.087)"/>
<circle cx="497" cy="285" r="4.9" fill="rgba(220,235,245,0.047)"/>
<circle cx="723" cy="497" r="3.4" fill="rgba(220,235,245,0.090)"/>
<circle cx="247" cy="290" r="2.3" fill="rgba(220,235,245,0.082)"/>
<circle cx="363" cy="405" r="4.4" fill="rgba(220,235,245,0.051)"/>
<circle cx="560" cy="360" r="2.1" fill="rgba(220,235,245,0.111)"/>
<circle cx="771" cy="467" r="4.8" fill="rgba(220,235,245,0.096)"/>
<circle cx="607" cy="425" r="4.7" fill="rgba(220,235,245,0.068)"/>
<circle cx="699" cy="315" r="2.7" fill="rgba(220,235,245,0.086)"/>
<circle cx="935" cy="434" r="4.7" fill="rgba(220,235,245,0.107)"/>
<circle cx="464" cy="362" r="5.9" fill="rgba(220,235,245,0.048)"/>
<circle cx="679" cy="252" r="5.3" fill="rgba(220,235,245,0.072)"/>
<circle cx="377" cy="363" r="4.5" fill="rgba(220,235,245,0.072)"/>
<circle cx="784" cy="461" r="3.1" fill="rgba(220,235,245,0.107)"/>
<circle cx="745" cy="229" r="5.5" fill="rgba(220,235,245,0.051)"/>
<circle cx="159" cy="354" r="2.1" fill="rgba(220,235,245,0.068)"/>
<circle cx="64" cy="406" r="2.1" fill="rgba(220,235,245,0.082)"/>
<circle cx="573" cy="234" r="3.0" fill="rgba(220,235,245,0.055)"/>
<circle cx="52" cy="202" r="2.4" fill="rgba(220,235,245,0.065)"/>
<circle cx="129" cy="448" r="2.3" fill="rgba(220,235,245,0.094)"/>
<circle cx="195" cy="328" r="3.0" fill="rgba(220,235,245,0.118)"/>
<circle cx="94" cy="204" r="4.0" fill="rgba(220,235,245,0.096)"/>
<circle cx="822" cy="450" r="6.0" fill="rgba(220,235,245,0.096)"/>
<circle cx="157" cy="262" r="2.8" fill="rgba(220,235,245,0.111)"/>
<circle cx="677" cy="285" r="4.3" fill="rgba(220,235,245,0.110)"/>
<circle cx="674" cy="445" r="5.9" fill="rgba(220,235,245,0.083)"/>
<circle cx="706" cy="467" r="3.9" fill="rgba(220,235,245,0.040)"/>
<circle cx="291" cy="331" r="5.4" fill="rgba(220,235,245,0.088)"/>
<circle cx="250" cy="202" r="3.4" fill="rgba(220,235,245,0.105)"/>
<circle cx="112" cy="337" r="5.5" fill="rgba(220,235,245,0.100)"/>
<circle cx="322" cy="297" r="5.5" fill="rgba(220,235,245,0.076)"/>
<circle cx="787" cy="228" r="2.7" fill="rgba(220,235,245,0.080)"/>
<circle cx="412" cy="202" r="5.1" fill="rgba(220,235,245,0.108)"/>
<circle cx="911" cy="305" r="5.4" fill="rgba(220,235,245,0.050)"/>
<circle cx="483" cy="308" r="3.1" fill="rgba(220,235,245,0.047)"/>
<circle cx="911" cy="260" r="2.0" fill="rgba(220,235,245,0.082)"/>
<circle cx="130" cy="210" r="4.6" fill="rgba(220,235,245,0.071)"/>
<circle cx="296" cy="464" r="3.7" fill="rgba(220,235,245,0.047)"/>
<circle cx="53" cy="293" r="4.7" fill="rgba(220,235,245,0.053)"/>
<circle cx="638" cy="474" r="5.5" fill="rgba(220,235,245,0.087)"/>
<circle cx="568" cy="452" r="5.3" fill="rgba(220,235,245,0.082)"/>
<circle cx="676" cy="366" r="3.0" fill="rgba(220,235,245,0.074)"/>
<circle cx="32" cy="470" r="5.9" fill="rgba(220,235,245,0.106)"/>
<circle cx="480" cy="341" r="2.7" fill="rgba(220,235,245,0.045)"/>
<circle cx="47" cy="487" r="2.3" fill="rgba(220,235,245,0.057)"/>
<circle cx="735" cy="420" r="5.0" fill="rgba(220,235,245,0.091)"/>
<circle cx="70" cy="349" r="1.4" fill="rgba(230,240,250,0.097)"/>
<circle cx="555" cy="791" r="1.8" fill="rgba(230,240,250,0.073)"/>
<circle cx="364" cy="77" r="1.3" fill="rgba(230,240,250,0.064)"/>
<circle cx="657" cy="135" r="0.9" fill="rgba(230,240,250,0.047)"/>
<circle cx="321" cy="68" r="0.6" fill="rgba(230,240,250,0.085)"/>
<circle cx="644" cy="649" r="1.3" fill="rgba(230,240,250,0.039)"/>
<circle cx="155" cy="442" r="2.0" fill="rgba(230,240,250,0.040)"/>
<circle cx="198" cy="869" r="1.7" fill="rgba(230,240,250,0.059)"/>
<circle cx="689" cy="478" r="1.0" fill="rgba(230,240,250,0.063)"/>
<circle cx="988" cy="887" r="1.7" fill="rgba(230,240,250,0.051)"/>
<circle cx="891" cy="816" r="1.1" fill="rgba(230,240,250,0.042)"/>
<circle cx="603" cy="598" r="1.4" fill="rgba(230,240,250,0.040)"/>
<circle cx="661" cy="268" r="2.1" fill="rgba(230,240,250,0.070)"/>
<circle cx="38" cy="284" r="2.1" fill="rgba(230,240,250,0.083)"/>
<circle cx="575" cy="349" r="0.7" fill="rgba(230,240,250,0.095)"/>
<circle cx="218" cy="546" r="1.5" fill="rgba(230,240,250,0.097)"/>
<circle cx="89" cy="126" r="1.6" fill="rgba(230,240,250,0.034)"/>
<circle cx="942" cy="56" r="2.3" fill="rgba(230,240,250,0.077)"/>
<circle cx="855" cy="660" r="2.4" fill="rgba(230,240,250,0.092)"/>
<circle cx="546" cy="602" r="0.6" fill="rgba(230,240,250,0.065)"/>
<circle cx="225" cy="209" r="0.9" fill="rgba(230,240,250,0.080)"/>
<circle cx="177" cy="610" r="0.8" fill="rgba(230,240,250,0.065)"/>
<circle cx="474" cy="760" r="1.5" fill="rgba(230,240,250,0.065)"/>
<circle cx="999" cy="324" r="1.5" fill="rgba(230,240,250,0.057)"/>
<circle cx="428" cy="932" r="2.4" fill="rgba(230,240,250,0.091)"/>
<circle cx="147" cy="368" r="2.2" fill="rgba(230,240,250,0.040)"/>
<circle cx="634" cy="1005" r="0.7" fill="rgba(230,240,250,0.084)"/>
<circle cx="314" cy="592" r="1.7" fill="rgba(230,240,250,0.091)"/>
<circle cx="932" cy="325" r="2.1" fill="rgba(230,240,250,0.041)"/>
<circle cx="687" cy="761" r="0.7" fill="rgba(230,240,250,0.071)"/>
<circle cx="895" cy="789" r="1.5" fill="rgba(230,240,250,0.097)"/>
<circle cx="394" cy="519" r="0.7" fill="rgba(230,240,250,0.062)"/>
<circle cx="295" cy="1009" r="2.0" fill="rgba(230,240,250,0.065)"/>
<circle cx="824" cy="996" r="1.1" fill="rgba(230,240,250,0.084)"/>
<circle cx="956" cy="416" r="1.1" fill="rgba(230,240,250,0.053)"/>
<circle cx="581" cy="847" r="2.5" fill="rgba(230,240,250,0.050)"/>
<circle cx="870" cy="93" r="1.2" fill="rgba(230,240,250,0.067)"/>
<circle cx="751" cy="905" r="2.3" fill="rgba(230,240,250,0.039)"/>
<circle cx="437" cy="42" r="1.4" fill="rgba(230,240,250,0.039)"/>
<circle cx="529" cy="1014" r="1.0" fill="rgba(230,240,250,0.075)"/>
<circle cx="471" cy="218" r="1.6" fill="rgba(230,240,250,0.091)"/>
<circle cx="538" cy="826" r="1.6" fill="rgba(230,240,250,0.084)"/>
<circle cx="798" cy="815" r="2.0" fill="rgba(230,240,250,0.096)"/>
<circle cx="909" cy="505" r="1.3" fill="rgba(230,240,250,0.092)"/>
<circle cx="741" cy="740" r="1.7" fill="rgba(230,240,250,0.057)"/>
<circle cx="816" cy="111" r="0.6" fill="rgba(230,240,250,0.086)"/>
<circle cx="263" cy="745" r="1.9" fill="rgba(230,240,250,0.062)"/>
<circle cx="894" cy="784" r="1.5" fill="rgba(230,240,250,0.079)"/>
<circle cx="754" cy="22" r="1.9" fill="rgba(230,240,250,0.096)"/>
<circle cx="587" cy="608" r="2.4" fill="rgba(230,240,250,0.080)"/>
<circle cx="344" cy="429" r="1.5" fill="rgba(230,240,250,0.059)"/>
<circle cx="674" cy="113" r="2.1" fill="rgba(230,240,250,0.067)"/>
<circle cx="1000" cy="954" r="0.7" fill="rgba(230,240,250,0.049)"/>
<circle cx="382" cy="11" r="2.2" fill="rgba(230,240,250,0.035)"/>
<circle cx="383" cy="169" r="2.2" fill="rgba(230,240,250,0.090)"/>
<circle cx="20" cy="363" r="1.2" fill="rgba(230,240,250,0.065)"/>
<circle cx="980" cy="759" r="1.8" fill="rgba(230,240,250,0.068)"/>
<circle cx="546" cy="573" r="1.1" fill="rgba(230,240,250,0.078)"/>
<circle cx="870" cy="821" r="1.1" fill="rgba(230,240,250,0.043)"/>
<circle cx="36" cy="172" r="2.0" fill="rgba(230,240,250,0.096)"/>
<circle cx="857" cy="927" r="2.1" fill="rgba(230,240,250,0.060)"/>
<circle cx="921" cy="486" r="1.4" fill="rgba(230,240,250,0.087)"/>
<circle cx="89" cy="856" r="1.5" fill="rgba(230,240,250,0.072)"/>
<circle cx="335" cy="963" r="0.5" fill="rgba(230,240,250,0.038)"/>
<circle cx="441" cy="428" r="2.1" fill="rgba(230,240,250,0.080)"/>
<circle cx="168" cy="970" r="2.3" fill="rgba(230,240,250,0.031)"/>
<circle cx="486" cy="900" r="2.4" fill="rgba(230,240,250,0.048)"/>
<circle cx="376" cy="646" r="1.3" fill="rgba(230,240,250,0.073)"/>
<circle cx="323" cy="579" r="0.9" fill="rgba(230,240,250,0.066)"/>
<circle cx="401" cy="365" r="2.4" fill="rgba(230,240,250,0.074)"/>
<circle cx="144" cy="375" r="2.1" fill="rgba(230,240,250,0.080)"/>
<circle cx="644" cy="578" r="0.6" fill="rgba(230,240,250,0.065)"/>
<circle cx="161" cy="558" r="1.5" fill="rgba(230,240,250,0.098)"/>
<circle cx="641" cy="383" r="2.5" fill="rgba(230,240,250,0.062)"/>
<circle cx="853" cy="530" r="2.2" fill="rgba(230,240,250,0.061)"/>
<circle cx="409" cy="838" r="0.5" fill="rgba(230,240,250,0.031)"/>
<circle cx="470" cy="263" r="2.2" fill="rgba(230,240,250,0.082)"/>
<circle cx="531" cy="96" r="1.6" fill="rgba(230,240,250,0.058)"/>
<circle cx="53" cy="708" r="0.8" fill="rgba(230,240,250,0.040)"/>
<circle cx="683" cy="342" r="1.5" fill="rgba(230,240,250,0.058)"/>
<ellipse cx="512" cy="1024" rx="819.2" ry="204.8" fill="rgba(200,220,230,0.06)"/>
<path d="M0 600 Q200 580 400 590 Q600 600 800 585 Q900 580 1024 590 L1024 1024 L0 1024 Z" fill="rgba(210,225,235,0.04)"/>
<text x="512" y="530" text-anchor="middle" font-family="STKaiti,KaiTi,SimSun,serif" font-size="72" font-weight="bold" fill="rgba(210,225,235,0.7)">雪 寂</text>
<text x="512" y="590" text-anchor="middle" font-family="Georgia,Times New Roman,serif" font-size="18" fill="rgba(190,210,225,0.35)" letter-spacing="6">Snow Silence</text>
<text x="512" y="612" text-anchor="middle" font-family="Georgia,serif" font-size="11" fill="rgba(180,200,215,0.2)" letter-spacing="4">shakuhachi meditation</text>
<line x1="362" y1="635" x2="662" y2="635" stroke="rgba(180,200,215,0.08)" stroke-width="0.5"/>
</svg>